<?xml version="1.0" encoding="utf-8"?>
<!-- Generator: Adobe Illustrator 21.0.2, SVG Export Plug-In . SVG Version: 6.00 Build 0)  -->
<svg version="1.1" id="Camada_1" xmlns="http://www.w3.org/2000/svg" xmlns:xlink="http://www.w3.org/1999/xlink" x="0px" y="0px"
	 viewBox="0 0 763.7 428.4" style="enable-background:new 0 0 763.7 428.4;" xml:space="preserve">
<style type="text/css">
	.st0{fill:#FFFFFF;}
	.st1{fill:#FFFFFF;stroke:#FFFFFF;stroke-width:8;}
</style>
<title>Logo FACTOS</title>
<g id="Camada_2">
	<g id="Camada_1-2">
		<path class="st0" d="M7.6,428v-35.1h13.6v3.5h-8.7V408h6.7v3.5h-6.7V428H7.6z M261,428.4c-1.3,0-2.6-0.2-3.8-0.6
			c-1-0.3-1.9-0.9-2.7-1.6c-0.7-0.7-1.3-1.6-1.7-2.5c-0.4-1-0.8-2.1-0.9-3.2c-0.2-1.2-0.3-2.5-0.3-3.8v-12.4c0-1.3,0.1-2.6,0.3-3.9
			c0.2-1.1,0.5-2.2,0.9-3.3c0.8-1.9,2.4-3.4,4.4-4c1.2-0.4,2.5-0.6,3.8-0.5c3.2,0,5.4,0.9,6.8,2.5c1.4,1.7,2.1,4.2,2.1,7.5v2.8h-4.6
			v-3.7c0-0.3,0-0.7-0.1-1.1c0-0.3,0-0.7-0.1-1c-0.1-0.3-0.1-0.6-0.2-0.9c-0.1-0.3-0.2-0.6-0.3-0.8c-0.2-0.2-0.3-0.4-0.5-0.6
			c-0.2-0.2-0.4-0.4-0.7-0.5c-0.3-0.1-0.7-0.2-1-0.3c-0.4-0.1-0.8-0.1-1.2-0.1c-0.6,0-1.2,0.1-1.8,0.2c-0.5,0.1-0.9,0.3-1.3,0.7
			c-0.3,0.3-0.6,0.6-0.8,1c-0.2,0.5-0.4,1-0.5,1.5c-0.1,0.6-0.2,1.1-0.2,1.7c-0.1,0.5-0.1,1.3-0.1,2.1v13.9c0,2.6,0.3,4.5,1,5.5
			c0.8,1.1,2.2,1.7,3.5,1.5c0.6,0,1.1-0.1,1.7-0.2c0.4-0.1,0.9-0.3,1.2-0.7c0.3-0.3,0.5-0.6,0.7-1c0.2-0.5,0.4-0.9,0.4-1.5
			c0.1-0.6,0.1-1.1,0.2-1.6s0-1.2,0-2V415h4.6v2.6c0,1.2-0.1,2.4-0.3,3.6c-0.1,1-0.4,2-0.9,3c-0.4,0.9-0.9,1.7-1.6,2.3
			c-0.7,0.7-1.6,1.2-2.5,1.5C263.4,428.2,262.2,428.4,261,428.4L261,428.4z M577,428.4c-2.5,0.2-5-0.8-6.8-2.7
			c-1.7-2.1-2.6-4.8-2.6-7.5l4.4-1.2c0.3,5,2,7.5,5,7.5c1.1,0.1,2.1-0.3,2.9-1c0.7-0.9,1.1-2,1-3.1c0-0.7-0.1-1.3-0.3-2
			c-0.2-0.6-0.5-1.2-0.8-1.8c-0.4-0.5-0.7-1-1.2-1.4c-0.3-0.4-0.9-0.9-1.5-1.5l-5.9-5.2c-1.1-0.9-2-2.1-2.6-3.4
			c-0.6-1.4-0.9-2.9-0.8-4.4c-0.1-2.2,0.7-4.4,2.2-6c1.6-1.5,3.8-2.2,6-2.1c2.8-0.1,4.9,0.7,6.3,2.1s2.2,3.8,2.5,6.9l-4.1,1.2
			c0-0.7-0.1-1.3-0.2-2c-0.1-0.6-0.3-1.2-0.5-1.8c-0.2-0.5-0.5-1-0.8-1.5c-0.4-0.4-0.8-0.7-1.3-0.9c-0.6-0.2-1.2-0.3-1.9-0.3
			c-2.6,0.2-3.9,1.5-3.9,3.9c0,0.9,0.1,1.8,0.5,2.6c0.5,0.8,1.1,1.5,1.8,2.1l5.9,5.2c1.5,1.3,2.7,2.8,3.7,4.5
			c0.9,1.6,1.4,3.5,1.4,5.4c0.1,2.3-0.7,4.5-2.3,6.1C581.4,427.7,579.2,428.5,577,428.4L577,428.4z M31.6,415.6h5.9l-3-15.9
			L31.6,415.6z M24.7,428l7.5-35.1h4.7l7.5,35.1h-4.7l-1.6-8.9H31l-1.7,8.9H24.7z M58.8,428.4c-1.3,0-2.6-0.2-3.8-0.6
			c-1-0.3-1.9-0.9-2.7-1.6c-0.7-0.7-1.3-1.6-1.7-2.5c-0.5-1-0.8-2.1-0.9-3.2c-0.2-1.2-0.3-2.5-0.3-3.8v-12.4c0-1.3,0.1-2.6,0.3-3.9
			c0.2-1.1,0.5-2.2,0.9-3.3c0.8-1.9,2.4-3.4,4.4-4c1.2-0.4,2.5-0.6,3.8-0.5c3.2,0,5.4,0.9,6.8,2.5c1.4,1.7,2,4.2,2,7.5v2.8H63v-2.5
			c0-0.5,0-0.9,0-1.3s0-0.7,0-1.1c0-0.3,0-0.7-0.1-1c-0.1-0.3-0.1-0.6-0.2-0.9c-0.1-0.3-0.2-0.6-0.3-0.8c-0.1-0.2-0.3-0.4-0.5-0.6
			c-0.2-0.2-0.5-0.4-0.7-0.5c-0.3-0.1-0.6-0.2-0.9-0.3c-0.4-0.1-0.8-0.1-1.2-0.1c-0.6,0-1.2,0.1-1.8,0.2c-0.5,0.1-0.9,0.3-1.3,0.7
			c-0.3,0.3-0.6,0.6-0.8,1c-0.2,0.5-0.4,1-0.5,1.5c-0.1,0.6-0.2,1.2-0.2,1.7s0,1.3,0,2.1v13.9c0,2.6,0.3,4.5,1,5.5
			c0.8,1.1,2.2,1.7,3.5,1.5c0.6,0,1.1-0.1,1.7-0.2c0.4-0.1,0.8-0.3,1.2-0.7c0.3-0.3,0.5-0.6,0.7-1c0.2-0.5,0.3-0.9,0.4-1.5
			c0.1-0.6,0.1-1.1,0.2-1.6s0-1.2,0-2v-2.6h4.6v2.6c0,1.2-0.1,2.4-0.3,3.6c-0.1,1-0.4,2-0.8,3c-0.4,0.9-0.9,1.7-1.6,2.3
			c-0.7,0.7-1.6,1.2-2.5,1.5C61.2,428.3,60,428.4,58.8,428.4z M78,428v-31.5h-6.4v-3.6h17.5v3.6h-6.2V428H78z M102.8,428.4
			c-1.5,0-3.1-0.2-4.5-0.8c-1.2-0.5-2.2-1.3-3-2.3c-0.8-1.1-1.3-2.3-1.6-3.5c-0.4-1.6-0.5-3.2-0.5-4.8v-13.3c0-3.7,0.7-6.4,2.2-8.3
			s3.9-2.8,7.4-2.8s5.8,0.9,7.3,2.8s2.2,4.7,2.2,8.3V417c0,3.7-0.7,6.5-2.2,8.4S106.2,428.4,102.8,428.4L102.8,428.4z M100.4,424.1
			c0.7,0.3,1.6,0.5,2.4,0.5c0.8,0,1.6-0.1,2.4-0.5c0.6-0.3,1.1-0.8,1.4-1.4c0.3-0.6,0.5-1.3,0.7-2c0.1-0.9,0.2-1.8,0.2-2.7v-15.4
			c0-0.9,0-1.8-0.2-2.7c-0.1-0.7-0.4-1.3-0.7-1.9c-0.3-0.6-0.8-1.1-1.4-1.3c-0.8-0.3-1.6-0.5-2.4-0.4c-0.8,0-1.6,0.1-2.4,0.4
			c-0.6,0.2-1.1,0.7-1.4,1.3c-0.3,0.6-0.5,1.3-0.7,1.9c-0.2,0.9-0.2,1.8-0.2,2.7V418c0,0.9,0.1,1.8,0.2,2.7c0.1,0.7,0.3,1.4,0.7,2
			C99.3,423.3,99.8,423.8,100.4,424.1L100.4,424.1z M124.3,408h1.8c2.1,0,3.6-0.4,4.6-1.3s1.4-2.4,1.4-4.6s-0.4-3.6-1.2-4.5
			s-2.3-1.3-4.4-1.3h-2.2V408z M119.4,428v-35.1h7.1c3.5,0,6.1,0.7,7.8,2.1s2.5,3.9,2.5,7.1c0,4.5-1.4,7.3-4.3,8.2l5,17.6h-4.8
			l-4.6-16.5h-3.8V428H119.4z M149.3,428v-12.4l-7.6-22.7h4.6l5.4,16.9l5.3-16.9h4.6l-7.5,22.7V428H149.3z M196.3,428.4
			c-1.5,0-3.1-0.2-4.5-0.8c-1.2-0.5-2.2-1.3-3-2.3c-0.8-1.1-1.3-2.3-1.6-3.5c-0.4-1.6-0.5-3.2-0.5-4.8v-13.3c0-3.7,0.7-6.4,2.2-8.3
			s3.9-2.8,7.3-2.8s5.9,0.9,7.4,2.8s2.2,4.7,2.2,8.3V417c0,3.7-0.7,6.5-2.3,8.4S199.7,428.4,196.3,428.4L196.3,428.4z M193.9,424.1
			c0.7,0.3,1.5,0.5,2.4,0.5c0.8,0,1.7-0.1,2.4-0.5c0.6-0.3,1.1-0.8,1.4-1.4c0.3-0.6,0.5-1.3,0.7-2c0.1-0.9,0.2-1.8,0.2-2.7v-15.4
			c0-0.9,0-1.8-0.2-2.7c-0.1-0.7-0.4-1.3-0.7-1.9c-0.3-0.6-0.8-1.1-1.4-1.3c-0.8-0.3-1.6-0.5-2.4-0.4c-0.8,0-1.6,0.1-2.4,0.4
			c-0.6,0.2-1.1,0.7-1.4,1.3c-0.3,0.6-0.5,1.3-0.6,1.9c-0.2,0.9-0.2,1.8-0.2,2.7V418c0,0.9,0.1,1.8,0.2,2.7c0.1,0.7,0.3,1.4,0.6,2
			C192.8,423.3,193.3,423.8,193.9,424.1L193.9,424.1z M212.8,428v-35.1h13.6v3.5h-8.7V408h6.7v3.5h-6.7V428H212.8z M285.6,428.4
			c-1.5,0-3.1-0.2-4.5-0.8c-1.2-0.5-2.2-1.3-3-2.3c-0.8-1.1-1.3-2.3-1.6-3.5c-0.4-1.6-0.5-3.1-0.5-4.7v-13.3c0-3.7,0.7-6.4,2.2-8.3
			s3.9-2.8,7.4-2.8s5.8,0.9,7.3,2.8s2.2,4.7,2.2,8.3V417c0,3.7-0.7,6.5-2.3,8.4S289,428.4,285.6,428.4z M283.3,424.1
			c0.7,0.3,1.6,0.5,2.4,0.5c0.8,0,1.6-0.1,2.4-0.5c0.6-0.3,1.1-0.8,1.4-1.4c0.3-0.6,0.5-1.3,0.7-2c0.1-0.9,0.2-1.8,0.2-2.7v-15.4
			c0-0.9,0-1.8-0.2-2.7c-0.1-0.7-0.4-1.3-0.7-1.9c-0.3-0.6-0.8-1.1-1.4-1.3c-0.8-0.3-1.6-0.5-2.4-0.4c-0.8,0-1.6,0.1-2.4,0.4
			c-0.6,0.2-1.1,0.7-1.5,1.3c-0.3,0.6-0.5,1.3-0.6,1.9c-0.2,0.9-0.2,1.8-0.2,2.7V418c0,0.9,0.1,1.8,0.2,2.7c0.1,0.7,0.3,1.4,0.6,2
			C282.1,423.3,282.6,423.8,283.3,424.1z M302.1,428l0.6-35.1h4.8l6.2,28.5l6.3-28.5h4.8l0.6,35.1h-4l-0.4-25.5l-6,25.5h-2.8
			l-5.9-25.5L306,428H302.1z M337.8,408.1h2.2c2.1,0,3.6-0.4,4.4-1.2s1.2-2.2,1.2-4.4c0-0.9,0-1.6-0.1-2.2c0-0.5-0.1-1.1-0.3-1.6
			c-0.1-0.4-0.3-0.8-0.6-1.2c-0.3-0.3-0.6-0.5-1-0.7c-0.5-0.2-1-0.3-1.5-0.4c-0.6-0.1-1.3-0.1-2.1-0.1h-2.3V408.1z M332.9,428v-35.1
			h8.7c3.1,0,5.2,0.8,6.6,2.5s2,4,2,7.2c0.2,2.4-0.6,4.8-2.2,6.7c-1.5,1.6-3.6,2.4-6.4,2.4h-3.8V428H332.9z M368.8,427.8
			c-1.3,0.4-2.6,0.6-3.9,0.6c-1.3,0-2.6-0.2-3.9-0.6c-1-0.3-1.9-0.9-2.7-1.6c-0.7-0.7-1.3-1.6-1.7-2.6c-0.4-1.1-0.7-2.2-0.9-3.3
			c-0.2-1.4-0.2-2.7-0.2-4.1v-23.3h4.6v23.5c0,1,0,1.9,0.1,2.6c0.1,0.7,0.2,1.5,0.4,2.2c0.1,0.6,0.4,1.3,0.8,1.8
			c0.4,0.5,0.8,0.8,1.4,1.1c0.6,0.3,1.4,0.4,2.1,0.4c0.7,0,1.4-0.1,2.1-0.4c0.5-0.3,1-0.7,1.4-1.1c0.4-0.5,0.6-1.1,0.8-1.8
			c0.2-0.7,0.3-1.5,0.4-2.2c0-0.7,0.1-1.6,0.1-2.6v-23.5h4.7v23.3c0,1.4-0.1,2.7-0.2,4.1c-0.2,1.1-0.5,2.3-0.9,3.3
			c-0.3,1-0.9,1.9-1.6,2.6C370.7,426.9,369.8,427.5,368.8,427.8z M385.1,428v-31.5h-6.4v-3.6h17.5v3.6H390V428H385.1z M405.8,415.6
			h5.9l-3-15.9L405.8,415.6z M398.9,428l7.5-35.1h4.7l7.5,35.1h-4.7l-1.6-8.9h-7.1l-1.7,8.9H398.9z M426.4,428v-31.5H420v-3.6h17.5
			v3.6h-6.2V428H426.4z M442.5,428v-35.1h4.8V428H442.5z M464,428.4c-1.5,0-3.1-0.2-4.5-0.8c-1.2-0.5-2.2-1.3-3-2.3
			c-0.8-1.1-1.3-2.3-1.6-3.5c-0.4-1.6-0.5-3.2-0.5-4.8v-13.3c0-3.7,0.7-6.4,2.2-8.3s3.9-2.8,7.3-2.8s5.9,0.9,7.4,2.8
			s2.2,4.7,2.2,8.3V417c0,3.7-0.8,6.5-2.3,8.4S467.4,428.4,464,428.4L464,428.4z M461.6,424.1c0.7,0.3,1.6,0.5,2.4,0.5
			c0.8,0,1.7-0.1,2.4-0.5c0.6-0.3,1.1-0.8,1.4-1.4c0.3-0.6,0.5-1.3,0.7-2c0.1-0.9,0.2-1.8,0.2-2.7v-15.4c0-0.9,0-1.8-0.2-2.7
			c-0.1-0.7-0.4-1.3-0.7-1.9c-0.3-0.6-0.8-1.1-1.4-1.3c-0.8-0.3-1.6-0.5-2.4-0.4c-0.8,0-1.6,0.1-2.4,0.4c-0.6,0.2-1.1,0.7-1.4,1.3
			c-0.3,0.6-0.6,1.3-0.7,1.9c-0.1,0.9-0.2,1.8-0.2,2.7V418c0,0.9,0,1.8,0.2,2.7c0.1,0.7,0.3,1.4,0.7,2
			C460.5,423.3,461,423.8,461.6,424.1L461.6,424.1z M480.6,428v-35.1h3.3l10,23.3v-23.3h4.1V428h-3.1l-10.2-24v24H480.6z
			 M510.6,415.6h5.9l-3-15.9L510.6,415.6z M503.6,428l7.5-35.1h4.7l7.5,35.1h-4.7l-1.6-8.9h-7.1l-1.7,8.9H503.6z M529,428v-35.1h4.9
			v31.6h9v3.5H529z M600.3,428.4c-1.5,0-3.1-0.2-4.5-0.8c-1.2-0.5-2.2-1.3-3-2.3c-0.8-1.1-1.3-2.3-1.6-3.5c-0.3-1.6-0.5-3.2-0.5-4.8
			v-13.3c0-3.7,0.7-6.4,2.2-8.3c1.5-1.9,4-2.8,7.4-2.8s5.9,0.9,7.4,2.8s2.2,4.7,2.2,8.3V417c0,3.7-0.8,6.5-2.3,8.4
			S603.7,428.4,600.3,428.4L600.3,428.4z M597.9,424.1c1.5,0.6,3.2,0.6,4.8,0c0.6-0.3,1.1-0.8,1.5-1.4c0.3-0.6,0.5-1.3,0.7-2
			c0.1-0.9,0.2-1.8,0.2-2.7v-15.4c0-0.9-0.1-1.8-0.2-2.7c-0.1-0.7-0.3-1.3-0.7-1.9c-0.3-0.6-0.8-1.1-1.5-1.3c-1.5-0.6-3.2-0.6-4.8,0
			c-0.6,0.2-1.1,0.7-1.4,1.3c-0.3,0.6-0.6,1.2-0.7,1.9c-0.1,0.9-0.2,1.8-0.2,2.7V418c0,0.9,0,1.8,0.2,2.7c0.1,0.7,0.3,1.4,0.7,2
			C596.8,423.3,597.3,423.8,597.9,424.1L597.9,424.1z M616.8,428v-35.1h4.9v31.6h9v3.5H616.8z M649,427.8c-1.3,0.4-2.6,0.6-3.9,0.6
			c-1.3,0-2.6-0.2-3.9-0.6c-1-0.3-1.9-0.9-2.7-1.6c-0.8-0.7-1.3-1.6-1.7-2.6c-0.4-1.1-0.7-2.2-0.8-3.3c-0.2-1.4-0.3-2.7-0.3-4.1
			v-23.3h4.7v23.5c0,1,0,1.9,0.1,2.6c0.1,0.7,0.2,1.5,0.4,2.2c0.2,0.6,0.4,1.3,0.8,1.8c0.4,0.5,0.9,0.8,1.4,1.1
			c0.6,0.3,1.4,0.4,2.1,0.4c0.7,0,1.4-0.1,2.1-0.4c0.5-0.3,1-0.7,1.3-1.1c0.4-0.5,0.6-1.2,0.8-1.8c0.2-0.7,0.3-1.5,0.4-2.2
			c0.1-0.7,0.1-1.6,0.1-2.6v-23.5h4.7v23.3c0,1.4-0.1,2.7-0.2,4.1c-0.1,1.1-0.4,2.3-0.8,3.3c-0.4,1-0.9,1.9-1.7,2.6
			C651,426.9,650,427.5,649,427.8L649,427.8z M665.4,428v-31.5H659v-3.6h17.5v3.6h-6.2V428H665.4z M681.5,428v-35.1h4.8V428H681.5z
			 M703,428.4c-1.5,0-3.1-0.2-4.5-0.8c-1.2-0.5-2.2-1.3-3-2.3c-0.8-1.1-1.3-2.3-1.6-3.5c-0.3-1.6-0.5-3.2-0.5-4.8v-13.3
			c0-3.7,0.7-6.4,2.2-8.3c1.5-1.9,4-2.8,7.4-2.8s5.9,0.9,7.4,2.8s2.2,4.7,2.2,8.3V417c0,3.7-0.8,6.5-2.3,8.4S706.4,428.4,703,428.4
			L703,428.4z M700.6,424.1c1.5,0.6,3.2,0.6,4.8,0c0.6-0.3,1.1-0.8,1.5-1.4c0.3-0.6,0.5-1.3,0.7-2c0.1-0.9,0.2-1.8,0.2-2.7v-15.4
			c0-0.9-0.1-1.8-0.2-2.7c-0.1-0.7-0.3-1.3-0.7-1.9c-0.3-0.6-0.8-1-1.5-1.3c-1.5-0.6-3.2-0.6-4.8,0c-0.6,0.2-1.1,0.7-1.4,1.3
			c-0.3,0.6-0.6,1.2-0.7,1.9c-0.1,0.9-0.2,1.8-0.2,2.7V418c0,0.9,0,1.8,0.2,2.7c0.1,0.7,0.3,1.4,0.7,2
			C699.5,423.3,700,423.8,700.6,424.1z M719.5,428v-35.1h3.3l10,23.3v-23.3h4.1V428h-3.2l-10.1-24v24H719.5z M752.8,428.4
			c-2.5,0.2-5-0.8-6.8-2.7c-1.7-2.1-2.6-4.8-2.6-7.5l4.4-1.2c0.3,5,2,7.5,5,7.5c1.1,0.1,2.1-0.3,2.9-1c0.7-0.9,1.1-2,1-3.1
			c0-0.7-0.1-1.3-0.3-2c-0.2-0.6-0.5-1.3-0.9-1.8c-0.3-0.5-0.7-1-1.1-1.4c-0.4-0.4-0.9-0.9-1.5-1.5l-5.9-5.2c-1.1-1-2-2.1-2.6-3.4
			c-0.6-1.4-0.8-2.9-0.8-4.4c-0.1-2.2,0.7-4.4,2.2-6c1.6-1.5,3.8-2.2,6-2.1c2.8-0.1,4.9,0.7,6.3,2.1s2.2,3.8,2.5,6.9l-4.1,1.2
			c-0.1-0.8-0.1-1.5-0.2-2c-0.1-0.6-0.3-1.2-0.5-1.8c-0.2-0.5-0.5-1-0.8-1.5c-0.3-0.4-0.8-0.7-1.3-0.9c-0.6-0.2-1.2-0.3-1.9-0.3
			c-2.6,0.2-3.9,1.5-3.9,3.9c0,0.9,0.2,1.8,0.5,2.6c0.5,0.8,1.1,1.5,1.8,2.1l5.9,5.2c1.5,1.3,2.7,2.8,3.7,4.5
			c0.9,1.6,1.4,3.5,1.4,5.4c0.1,2.3-0.7,4.5-2.3,6.1C757.2,427.7,755,428.5,752.8,428.4z"/>
		<path class="st0" d="M0.4,325.6V73.2h97.4v25.3H35.5v83.9h48.2v25.1H35.5v118.2H0.4z M147,254.6h33.8l-16.9-91.2L147,254.6z
			 M107,325.6l43.1-201.9h27.2l43.1,201.9h-26.8l-9.2-50.9h-41.1l-9.6,50.9H107z M291.3,327.8c-7.5,0.1-15-1-22.1-3.4
			c-5.8-2-11.1-5.1-15.5-9.3c-4.2-4.2-7.5-9.1-9.8-14.5c-2.6-5.9-4.4-12-5.3-18.3c-1-7.1-1.5-14.4-1.5-21.6v-71.3
			c-0.1-7.6,0.5-15.2,1.6-22.8c0.9-6.4,2.7-12.7,5.3-18.6c2.3-5.4,5.6-10.2,9.9-14.3c4.5-4,9.8-7,15.5-8.8c7.1-2.2,14.5-3.3,22-3.2
			c18.2,0,31.2,4.9,39.1,14.7s11.8,24.3,11.8,43.4v16.1h-26.7v-14.3c0-3.1,0-5.5-0.1-7.2c0-1.8-0.1-3.9-0.3-6.5c0-2-0.2-4.1-0.6-6.1
			c-0.3-1.5-0.7-3.2-1.3-5.2c-0.4-1.6-1.1-3.2-2-4.5c-0.9-1.3-1.9-2.4-3-3.5c-1.2-1.2-2.6-2.2-4.2-2.8c-1.8-0.7-3.6-1.1-5.4-1.5
			c-2.3-0.4-4.7-0.6-7.1-0.6c-3.5-0.1-6.9,0.4-10.2,1.3c-2.7,0.7-5.2,2.1-7.2,4c-1.8,1.8-3.4,3.8-4.6,6c-1.3,2.7-2.2,5.5-2.6,8.5
			c-0.6,3.3-1,6.6-1.2,10c-0.2,3.2-0.3,7.2-0.3,11.9v79.9c0,15.2,1.9,25.7,5.7,31.7s10.6,8.8,20.4,8.8c3.3,0.1,6.5-0.3,9.7-1.2
			c2.5-0.7,4.9-2.1,6.7-4c1.7-1.7,3.1-3.7,4.2-5.8c1.2-2.6,2-5.4,2.3-8.2c0.5-3.5,0.8-6.7,0.9-9.5s0.2-6.8,0.2-11.5v-14.9h26.6v15
			c0.1,6.9-0.4,13.8-1.5,20.7c-0.9,5.9-2.6,11.6-5,17.1c-2.1,5-5.3,9.5-9.3,13.2c-4.2,3.7-9.2,6.5-14.6,8.3
			C305.2,326.9,298.3,327.9,291.3,327.8L291.3,327.8z M390,325.6V144.5h-36.9v-20.8h100.6v20.8h-35.5v181.1H390z"/>
		<path class="st0" d="M704.1,327.8c-17,0-29.9-5.2-38.8-15.7s-13.9-24.8-14.9-43l25.1-6.8c1.8,28.9,11.3,43.3,28.6,43.4
			c7.2,0,12.8-2,16.5-6.1s5.7-9.9,5.7-17.7c0-4-0.5-8-1.5-11.8c-1.1-3.7-2.7-7.1-5-10.2c-2-2.9-4.2-5.6-6.6-8.1
			c-2.1-2.1-5-5-8.8-8.6l-33.8-30.1c-6.8-6.2-11.8-12.7-14.9-19.5c-3.1-6.9-4.7-15.3-4.7-25.2c0-14.6,4.2-26,12.7-34.2
			s20.1-12.3,34.8-12.5c16.1-0.3,28.2,3.9,36.3,12.5c8.1,8.6,12.9,21.8,14.5,39.8l-23.7,6.6c-0.3-4.4-0.8-8.3-1.3-11.7
			c-0.6-3.5-1.5-7-2.8-10.3c-1.1-3.1-2.7-5.9-4.8-8.4c-2-2.3-4.6-4-7.4-5.1c-3.4-1.3-7.1-1.9-10.7-1.6c-14.9,1-22.3,8.4-22.3,22.2
			c0,6,1,10.9,3,14.9c2.7,4.7,6.1,9,10.2,12.5l34.1,30.1c8.3,7.4,15.5,16,21.2,25.6c5.2,9.1,7.9,19.4,7.8,31
			c0,14.8-4.5,26.5-13.4,35.1C730.2,323.5,718.5,327.8,704.1,327.8z"/>
		<path class="st1" d="M595,124.7c-12.9-12.4-30.3-19-48.1-18.3c-34.6,1.4-62.9,30.7-63,65.4c-0.1,15.4,5.3,30.3,15.2,42.1
			c14.2,17,22,38.5,22,60.7c0,0-1.5,10.1,5.7,10.1h45.4c7.4,0,5.7-10.1,5.7-10.1c0-21.6,7.9-43,23-61.8
			C622,186.3,619.4,148.2,595,124.7L595,124.7z M591.9,205.6c-16.4,20.5-25.1,43.9-25.4,67.6h-33.9c-0.3-24.4-9-47.9-24.7-66.7
			c-8.1-9.7-12.5-22-12.5-34.7c0.1-28.7,23.4-52.8,52-54c29.8-1.2,55,22,56.3,51.8C604.2,182.7,600.1,195.4,591.9,205.6L591.9,205.6
			z"/>
		<path class="st0" d="M572.5,295.9h-45.8c-3.2,0-5.7,2.6-5.7,5.7c0,3.2,2.6,5.7,5.7,5.7h45.8c3.2,0,5.7-2.6,5.7-5.7
			C578.2,298.4,575.6,295.9,572.5,295.9z"/>
		<path class="st0" d="M563.8,314.1h-28.5c-3.2,0-5.7,2.6-5.7,5.7c0,3.2,2.6,5.7,5.7,5.7h28.5c3.2,0,5.7-2.6,5.7-5.7
			C569.5,316.7,567,314.1,563.8,314.1z"/>
		<path class="st0" d="M624.9,82.9h114.3c3.9,0,7,3.1,7,7s-3.1,7-7,7H612.7c-3.9,0-7-3.1-7-7s3.1-7,7-7H624.9z"/>
		<path class="st0" d="M506.9,49.5l-17.3-17c-2.8-2.7-7.2-2.7-9.9,0.1c-2.7,2.8-2.7,7.2,0.1,9.9l17.3,17c2.8,2.7,7.2,2.7,9.9-0.1
			C509.7,56.7,509.6,52.3,506.9,49.5z"/>
		<path class="st0" d="M552,31.3V7c0-3.9-3.1-7-7-7s-7,3.1-7,7v24.3c0,3.9,3.1,7,7,7S552,35.1,552,31.3z"/>
		<path class="st0" d="M582.9,44.5l17.3-17c2.8-2.7,7.2-2.7,9.9,0.1c2.7,2.8,2.7,7.2-0.1,9.9l0,0l-17.3,17c-2.8,2.7-7.2,2.7-9.9-0.1
			C580.1,51.7,580.2,47.2,582.9,44.5z"/>
		<path class="st0" d="M474.9,82.9H133.8c-3.9,0-7,3.1-7,7s3.1,7,7,7h341.1c3.9,0,7-3.1,7-7S478.8,82.9,474.9,82.9z"/>
		<path class="st0" d="M758.2,352.7l-0.1-0.2H7c-3.9-0.2-7.2,2.7-7.4,6.6s2.7,7.2,6.6,7.4l0,0v0.1h751.2l0,0
			c3.9-0.3,6.7-3.7,6.4-7.6C763.5,355.9,761.3,353.4,758.2,352.7L758.2,352.7z"/>
	</g>
</g>
</svg>
